HIERARCHY
ROOT Hips
{
	OFFSET 0.000000 89.005402 0.000000
	CHANNELS 6 Xposition Yposition Zposition Xrotation Yrotation Zrotation
	JOINT Spine
	{
		OFFSET 0.116900 10.681000 0.373400
		CHANNELS 3 Xrotation Yrotation Zrotation
		JOINT Spine1
		{
			OFFSET 0.000000 13.840401 0.053500
			CHANNELS 3 Xrotation Yrotation Zrotation
			JOINT Spine2
			{
				OFFSET 0.000000 14.712700 -0.366200
				CHANNELS 3 Xrotation Yrotation Zrotation
				JOINT Neck
				{
					OFFSET 0.000000 35.415497 -3.314200
					CHANNELS 3 Xrotation Yrotation Zrotation
					JOINT Head
					{
						OFFSET 0.000000 16.899200 1.218300
						CHANNELS 3 Xrotation Yrotation Zrotation
						JOINT HeadTop_End
						{
							OFFSET 0.000000 22.206207 2.192500
							CHANNELS 3 Xrotation Yrotation Zrotation
							End Site
							{
								OFFSET 0.000000 22.314178 0.000000
							}
						}
					}
				}
				JOINT LeftShoulder
				{
					OFFSET 12.896400 26.716293 -4.548400
					CHANNELS 3 Xrotation Yrotation Zrotation
					JOINT LeftArm
					{
						OFFSET 19.027000 -4.857010 -1.718400
						CHANNELS 3 Xrotation Yrotation Zrotation
						JOINT LeftForeArm
						{
							OFFSET 24.179897 0.000000 0.000000
							CHANNELS 3 Xrotation Yrotation Zrotation
							JOINT LeftHand
							{
								OFFSET 27.156403 0.000000 0.000000
								CHANNELS 3 Xrotation Yrotation Zrotation
								JOINT LeftHandIndex1
								{
									OFFSET 16.441200 0.000000 0.000000
									CHANNELS 3 Xrotation Yrotation Zrotation
									JOINT LeftHandIndex2
									{
										OFFSET 4.821899 0.000000 0.000000
										CHANNELS 3 Xrotation Yrotation Zrotation
										JOINT LeftHandIndex3
										{
											OFFSET 6.386497 0.000000 0.000000
											CHANNELS 3 Xrotation Yrotation Zrotation
											JOINT LeftHandIndex4
											{
												OFFSET 5.188988 0.000000 0.000000
												CHANNELS 3 Xrotation Yrotation Zrotation
												End Site
												{
													OFFSET -0.178703 5.185913 0.000177
												}
											}
										}
									}
								}
								JOINT LeftHandThumb1
								{
									OFFSET 6.534897 -5.032593 5.900300
									CHANNELS 3 Xrotation Yrotation Zrotation
									JOINT LeftHandThumb2
									{
										OFFSET 3.818176 -2.204422 2.204423
										CHANNELS 3 Xrotation Yrotation Zrotation
										JOINT LeftHandThumb3
										{
											OFFSET 3.252098 -1.877594 1.877601
											CHANNELS 3 Xrotation Yrotation Zrotation
											JOINT LeftHandThumb4
											{
												OFFSET 5.251778 -3.032120 3.032117
												CHANNELS 3 Xrotation Yrotation Zrotation
												End Site
												{
													OFFSET 0.000023 6.780014 0.000000
												}
											}
										}
									}
								}
							}
						}
					}
				}
				JOINT RightShoulder
				{
					OFFSET -12.896300 26.716293 -4.548400
					CHANNELS 3 Xrotation Yrotation Zrotation
					JOINT RightArm
					{
						OFFSET -19.027000 -4.857010 -1.718400
						CHANNELS 3 Xrotation Yrotation Zrotation
						JOINT RightForeArm
						{
							OFFSET -24.179897 0.000000 0.000000
							CHANNELS 3 Xrotation Yrotation Zrotation
							JOINT RightHand
							{
								OFFSET -27.156403 0.000000 0.000000
								CHANNELS 3 Xrotation Yrotation Zrotation
								JOINT RightHandThumb1
								{
									OFFSET -6.591202 -4.852203 5.988100
									CHANNELS 3 Xrotation Yrotation Zrotation
									JOINT RightHandThumb2
									{
										OFFSET -3.818176 -2.204422 2.204423
										CHANNELS 3 Xrotation Yrotation Zrotation
										JOINT RightHandThumb3
										{
											OFFSET -3.252098 -1.877594 1.877601
											CHANNELS 3 Xrotation Yrotation Zrotation
											JOINT RightHandThumb4
											{
												OFFSET -5.251778 -3.032120 3.032117
												CHANNELS 3 Xrotation Yrotation Zrotation
												End Site
												{
													OFFSET -0.000023 6.780014 0.000000
												}
											}
										}
									}
								}
								JOINT RightHandIndex1
								{
									OFFSET -16.029404 0.000000 0.000000
									CHANNELS 3 Xrotation Yrotation Zrotation
									JOINT RightHandIndex2
									{
										OFFSET -5.213303 0.000000 0.000000
										CHANNELS 3 Xrotation Yrotation Zrotation
										JOINT RightHandIndex3
										{
											OFFSET -6.386528 0.000000 0.000000
											CHANNELS 3 Xrotation Yrotation Zrotation
											JOINT RightHandIndex4
											{
												OFFSET -5.189026 0.000000 0.000000
												CHANNELS 3 Xrotation Yrotation Zrotation
												End Site
												{
													OFFSET 0.236702 5.183624 0.001972
												}
											}
										}
									}
								}
							}
						}
					}
				}
			}
		}
	}
	JOINT LeftUpLeg
	{
		OFFSET 14.073000 -7.904099 -1.463000
		CHANNELS 3 Xrotation Yrotation Zrotation
		JOINT LeftLeg
		{
			OFFSET -0.109806 -34.073280 4.093200
			CHANNELS 3 Xrotation Yrotation Zrotation
			JOINT LeftFoot
			{
				OFFSET 0.109806 -29.899420 -6.319000
				CHANNELS 3 Xrotation Yrotation Zrotation
				JOINT LeftToeBase
				{
					OFFSET 1.551100 -14.988700 20.535801
					CHANNELS 3 Xrotation Yrotation Zrotation
					JOINT LeftToe_End
					{
						OFFSET 0.221200 0.570800 13.248301
						CHANNELS 3 Xrotation Yrotation Zrotation
						End Site
						{
							OFFSET 0.000000 13.262435 0.000000
						}
					}
				}
			}
		}
	}
	JOINT RightUpLeg
	{
		OFFSET -13.839300 -7.904099 -1.463000
		CHANNELS 3 Xrotation Yrotation Zrotation
		JOINT RightLeg
		{
			OFFSET 0.109694 -34.073219 4.093300
			CHANNELS 3 Xrotation Yrotation Zrotation
			JOINT RightFoot
			{
				OFFSET -0.109694 -29.899384 -6.319200
				CHANNELS 3 Xrotation Yrotation Zrotation
				JOINT RightToeBase
				{
					OFFSET -1.551100 -14.988700 20.535801
					CHANNELS 3 Xrotation Yrotation Zrotation
					JOINT RightToe_End
					{
						OFFSET -0.221200 0.570900 13.248299
						CHANNELS 3 Xrotation Yrotation Zrotation
						End Site
						{
							OFFSET 0.000000 13.262440 0.000000
						}
					}
				}
			}
		}
	}
}
MOTION
Frames: 6
Frame Time: 0.033333
57.517109 83.108704 -1.229066 -1.351967 38.429803 5.252922 7.587009 -9.403297 1.442545 2.832136 -2.463322 0.442190 2.827953 -2.466171 0.442270 -4.289516 -3.099264 -0.128393 -10.626206 -17.853360 4.156916 -0.000000 -0.000000 0.000001 3.206820 -5.704089 -13.363095 -8.992304 -48.046313 -66.020520 0.000001 -27.452410 -0.000010 36.493438 -6.494317 -5.918894 -0.534375 0.261052 -17.550497 0.608387 2.601568 -26.320359 0.488232 2.343294 -23.535708 -0.000001 0.000001 -0.000001 -1.395954 1.756329 3.377263 6.494740 16.428893 1.706556 -7.491822 -1.347765 12.902585 -0.000002 0.000001 0.000003 3.239000 -1.318296 2.633738 -10.572773 -14.317443 73.787101 -0.000004 14.849600 0.000016 30.644241 -3.367825 3.851416 -2.439338 0.243588 -2.763571 6.815505 -18.242694 -2.425226 -5.635277 -4.574319 -14.514502 0.000001 0.000001 0.000002 -0.574403 0.242059 16.805609 0.485288 -2.071779 26.364016 0.389487 -1.866146 23.575901 0.000001 -0.000003 0.000001 9.073753 1.469267 -21.522725 8.333029 3.369584 0.494395 -14.734646 -3.437310 15.382621 -2.417354 0.000017 0.000002 -0.000000 -0.000002 -0.000000 -25.134232 -9.895022 11.684126 24.916469 -6.456320 -1.972865 -6.640678 -18.298777 -8.760908 0.038129 0.000066 -0.063144 -0.000000 -0.000001 -0.000000 
59.095200 83.078659 -1.207997 -0.607499 39.351039 4.382075 7.465356 -9.260921 2.215255 2.744494 -2.439405 0.596021 2.739258 -2.443061 0.596590 -4.623711 -3.199725 0.272173 -11.351348 -17.901666 4.421606 0.000000 0.000000 0.000001 3.196288 -5.782304 -13.310131 -9.579700 -49.288882 -67.103870 0.000008 -27.664006 0.000006 37.992418 -8.007627 -6.835742 -0.534374 0.261055 -17.550497 0.608384 2.601568 -26.320358 0.488232 2.343294 -23.535701 -0.000001 0.000001 -0.000002 -1.395952 1.756330 3.377260 6.494742 16.428893 1.706555 -7.491822 -1.347766 12.902583 -0.000001 -0.000001 0.000003 3.268689 -1.086786 3.093066 -12.289816 -12.329356 73.019182 0.000006 14.706342 -0.000037 29.268962 -3.174942 3.249869 -2.439338 0.243589 -2.763571 6.815505 -18.242694 -2.425225 -5.635283 -4.574322 -14.514502 0.000003 -0.000000 -0.000001 -0.574402 0.242059 16.805609 0.485294 -2.071780 26.364018 0.389490 -1.866143 23.575892 0.000001 0.000001 0.000001 9.907747 0.942444 -22.036140 6.783807 2.949908 0.538716 -14.018005 -3.669111 16.400568 -3.818883 -0.000001 0.000002 -0.000000 -0.000001 0.000000 -25.493915 -10.192631 11.200960 25.738045 -6.465663 -1.944648 -7.932865 -18.316382 -9.807611 0.689197 -0.000006 0.000004 -0.000000 -0.000000 -0.000000 
60.690205 83.026382 -1.126929 -0.201710 40.072751 3.355701 7.595626 -9.167541 3.261720 2.771010 -2.429443 0.802064 2.763173 -2.434644 0.802243 -4.912594 -3.286454 0.734013 -12.175052 -17.822429 4.718335 -0.000000 0.000000 0.000000 3.158260 -6.058929 -13.129236 -10.846136 -49.792100 -68.393539 -0.000003 -26.918722 0.000006 39.625735 -8.556111 -7.259742 -0.534372 0.261055 -17.550501 0.608384 2.601565 -26.320354 0.488231 2.343297 -23.535705 -0.000000 0.000001 0.000001 -1.395949 1.756332 3.377264 6.494744 16.428891 1.706554 -7.491821 -1.347765 12.902583 -0.000000 -0.000001 0.000002 3.297081 -0.695266 3.645268 -14.469392 -10.081778 71.982612 0.000003 14.556055 -0.000009 27.650602 -2.965836 2.581974 -2.439345 0.243588 -2.763572 6.815511 -18.242694 -2.425227 -5.635277 -4.574321 -14.514507 -0.000000 -0.000002 0.000000 -0.574407 0.242059 16.805607 0.485286 -2.071780 26.364018 0.389486 -1.866150 23.575892 -0.000000 0.000003 -0.000000 9.953157 1.158818 -22.046225 8.145892 2.480068 0.592229 -14.561033 -3.919682 16.633635 -3.883694 -0.000003 -0.000002 0.000000 -0.000000 0.000000 -24.952926 -10.229615 11.311018 25.479666 -6.789528 -1.977059 -8.493736 -17.315848 -11.607160 0.512141 -0.000002 -0.000002 -0.000000 -0.000000 -0.000000 
62.300198 83.040680 -1.010642 -0.010739 40.559637 2.490882 7.747664 -9.137880 4.267364 2.858111 -2.429260 1.028719 2.847540 -2.436697 1.027097 -5.053240 -3.341131 1.181715 -12.880163 -17.602419 4.901564 0.000000 0.000001 0.000000 3.106871 -6.437297 -12.851038 -12.044313 -49.636679 -69.476172 0.000010 -25.867561 0.000022 40.839631 -8.090509 -7.324656 -0.534374 0.261055 -17.550501 0.608385 2.601570 -26.320358 0.488231 2.343296 -23.535707 -0.000001 0.000001 0.000005 -1.395951 1.756333 3.377263 6.494742 16.428891 1.706555 -7.491820 -1.347766 12.902587 0.000001 -0.000001 -0.000000 3.321106 -0.349585 4.186255 -17.077069 -7.762385 70.972188 0.000002 14.308200 0.000003 26.494051 -2.726923 2.193032 -2.439345 0.243588 -2.763573 6.815513 -18.242696 -2.425226 -5.635281 -4.574321 -14.514505 0.000002 0.000001 0.000000 -0.574403 0.242059 16.805607 0.485292 -2.071781 26.364018 0.389488 -1.866146 23.575895 0.000001 -0.000002 -0.000001 9.308944 1.815676 -21.776702 11.709280 1.931981 0.643927 -16.175691 -3.907940 15.154988 -4.070897 -0.003120 0.442429 0.000000 0.000002 -0.000000 -24.437295 -10.211777 10.865006 25.546308 -6.525595 -1.920992 -7.399412 -17.169706 -10.665289 -0.230084 0.000009 0.000002 -0.000000 -0.000001 -0.000001 
64.000999 83.144737 -0.846863 0.074628 40.991462 1.979376 7.728856 -9.088037 5.036311 2.914935 -2.419641 1.220308 2.902390 -2.429485 1.216375 -4.985800 -3.390853 1.536895 -13.105724 -17.424613 4.862870 0.000000 0.000000 -0.000000 3.057966 -6.809292 -12.549189 -12.539679 -49.163848 -69.982617 -0.000010 -24.667537 -0.000013 41.686441 -7.362695 -7.124649 -0.534372 0.261052 -17.550497 0.608383 2.601567 -26.320354 0.488231 2.343295 -23.535707 0.000001 -0.000002 0.000005 -1.395950 1.756330 3.377263 6.494741 16.428895 1.706555 -7.491819 -1.347766 12.902584 0.000002 -0.000000 0.000001 3.345492 -0.235745 4.617475 -19.769373 -5.558127 70.280024 -0.000000 13.975058 0.000003 25.913726 -2.323600 2.019092 -2.439341 0.243588 -2.763570 6.815515 -18.242692 -2.425226 -5.635285 -4.574322 -14.514504 -0.000004 0.000001 0.000001 -0.574402 0.242059 16.805607 0.485288 -2.071780 26.364018 0.389488 -1.866145 23.575899 -0.000000 -0.000004 -0.000000 9.516372 2.096962 -21.942531 13.367345 1.444595 0.690467 -16.409219 -3.860992 14.444901 -5.003457 -0.027402 1.305183 0.000000 0.000004 0.000000 -23.239229 -10.150595 10.667413 24.872663 -6.592639 -1.932140 -7.509547 -16.642511 -11.670048 -0.672910 -0.000004 -0.000000 -0.000000 -0.000001 0.000000 
65.749367 83.351448 -0.625847 0.017903 41.456267 1.829769 7.553861 -8.806454 5.552149 2.882405 -2.354186 1.326993 2.868745 -2.365913 1.322168 -4.738167 -3.497463 1.784627 -12.698041 -17.572772 4.643690 -0.000000 0.000000 0.000000 3.021506 -7.101794 -12.342039 -12.452440 -48.398010 -69.950604 0.000003 -23.054238 0.000009 42.781026 -7.205425 -6.697324 -0.534371 0.261054 -17.550502 0.608385 2.601567 -26.320358 0.488232 2.343295 -23.535707 -0.000002 0.000001 -0.000004 -1.395950 1.756333 3.377259 6.494741 16.428893 1.706558 -7.491824 -1.347765 12.902580 0.000000 0.000002 -0.000005 3.373245 -0.253446 4.982157 -21.970292 -3.640073 69.886748 -0.000001 13.917590 0.000003 25.264159 -1.696416 1.772137 -2.439346 0.243588 -2.763571 6.815516 -18.242696 -2.425226 -5.635281 -4.574324 -14.514504 0.000000 0.000001 -0.000000 -0.574408 0.242059 16.805607 0.485286 -2.071780 26.364018 0.389481 -1.866147 23.575897 0.000000 -0.000000 -0.000003 10.000319 2.361663 -22.339459 14.694018 0.623623 0.742475 -16.253004 -3.316910 13.354270 -6.089828 -0.090477 2.356021 0.000000 0.000000 0.000000 -22.360106 -9.963228 9.787449 25.283620 -6.400231 -1.862600 -8.227642 -16.511706 -11.293535 -0.377450 0.000002 0.000000 0.000000 -0.000000 -0.000000 
